<?xml version="1.0" encoding="UTF-8" standalone="no"?>
<svg
   width="1062.7119"
   height="394.33417"
   overflow="hidden"
   version="1.1"
   id="svg322"
   sodipodi:docname="CDAC.svg"
   inkscape:version="1.2.2 (732a01da63, 2022-12-09)"
   xmlns:inkscape="http://www.inkscape.org/namespaces/inkscape"
   xmlns:sodipodi="http://sodipodi.sourceforge.net/DTD/sodipodi-0.dtd"
   xmlns="http://www.w3.org/2000/svg"
   xmlns:svg="http://www.w3.org/2000/svg">
  <defs
     id="defs326" />
  <sodipodi:namedview
     id="namedview324"
     pagecolor="#ffffff"
     bordercolor="#000000"
     borderopacity="0.25"
     inkscape:showpageshadow="2"
     inkscape:pageopacity="0.0"
     inkscape:pagecheckerboard="0"
     inkscape:deskcolor="#d1d1d1"
     showgrid="false"
     inkscape:zoom="1.3111111"
     inkscape:cx="406.14407"
     inkscape:cy="335.21186"
     inkscape:window-width="1920"
     inkscape:window-height="1111"
     inkscape:window-x="-9"
     inkscape:window-y="-9"
     inkscape:window-maximized="1"
     inkscape:current-layer="svg322" />
  <rect
     x="0"
     y="0"
     width="1062.7119"
     height="394.33417"
     fill="#ffffff"
     id="rect2"
     style="stroke-width:0.674324" />
  <path
     d="m 298.35596,221.33417 -14,24"
     stroke="#000000"
     stroke-width="2.33417"
     stroke-linecap="round"
     stroke-linejoin="bevel"
     stroke-miterlimit="10"
     fill="none"
     fill-rule="evenodd"
     id="path4" />
  <path
     d="m 284.35596,245.33417 9,-9.333 -4.5,-4.667 z"
     stroke="#000000"
     stroke-width="2.33417"
     stroke-linecap="round"
     stroke-linejoin="bevel"
     stroke-miterlimit="10"
     fill-rule="evenodd"
     id="path6" />
  <path
     d="m 279.35596,244.83417 c 0,-2.485 2.015,-4.5 4.5,-4.5 2.485,0 4.5,2.015 4.5,4.5 0,2.485 -2.015,4.5 -4.5,4.5 -2.485,0 -4.5,-2.015 -4.5,-4.5 z"
     stroke="#000000"
     stroke-width="1.54058"
     stroke-linecap="round"
     stroke-linejoin="bevel"
     stroke-miterlimit="10"
     fill-rule="evenodd"
     id="path8" />
  <path
     d="m 293.35596,221.83417 c 0,-2.485 2.015,-4.5 4.5,-4.5 2.485,0 4.5,2.015 4.5,4.5 0,2.485 -2.015,4.5 -4.5,4.5 -2.485,0 -4.5,-2.015 -4.5,-4.5 z"
     stroke="#000000"
     stroke-width="1.54058"
     stroke-linecap="round"
     stroke-linejoin="bevel"
     stroke-miterlimit="10"
     fill-rule="evenodd"
     id="path10" />
  <path
     d="m 298.35596,221.33417 v -23"
     stroke="#000000"
     stroke-width="2.33417"
     stroke-linecap="round"
     stroke-linejoin="bevel"
     stroke-miterlimit="10"
     fill="none"
     fill-rule="evenodd"
     id="path12" />
  <path
     d="m 307.35596,244.83417 c 0,-2.485 2.015,-4.5 4.5,-4.5 2.485,0 4.5,2.015 4.5,4.5 0,2.485 -2.015,4.5 -4.5,4.5 -2.485,0 -4.5,-2.015 -4.5,-4.5 z"
     stroke="#000000"
     stroke-width="1.54058"
     stroke-linecap="round"
     stroke-linejoin="bevel"
     stroke-miterlimit="10"
     fill-rule="evenodd"
     id="path14" />
  <path
     d="m 284.35596,245.33417 h -10"
     stroke="#000000"
     stroke-width="2.33417"
     stroke-linecap="round"
     stroke-linejoin="bevel"
     stroke-miterlimit="10"
     fill="none"
     fill-rule="evenodd"
     id="path16" />
  <path
     d="m 321.35596,245.33417 h -9"
     stroke="#000000"
     stroke-width="2.33417"
     stroke-linecap="round"
     stroke-linejoin="bevel"
     stroke-miterlimit="10"
     fill="none"
     fill-rule="evenodd"
     id="path18" />
  <path
     d="m 316.35596,156.33417 h -37"
     stroke="#000000"
     stroke-width="2.33417"
     stroke-linecap="round"
     stroke-linejoin="bevel"
     stroke-miterlimit="10"
     fill="none"
     fill-rule="evenodd"
     id="path20" />
  <path
     d="m 279.35596,170.33417 h 37"
     stroke="#000000"
     stroke-width="2.33417"
     stroke-linecap="round"
     stroke-linejoin="bevel"
     stroke-miterlimit="10"
     fill="none"
     fill-rule="evenodd"
     id="path22" />
  <path
     d="m 298.35596,170.33417 v 28"
     stroke="#000000"
     stroke-width="2.33417"
     stroke-linecap="round"
     stroke-linejoin="bevel"
     stroke-miterlimit="10"
     fill="none"
     fill-rule="evenodd"
     id="path24" />
  <path
     d="m 298.35596,156.33417 v -28"
     stroke="#000000"
     stroke-width="2.33417"
     stroke-linecap="round"
     stroke-linejoin="bevel"
     stroke-miterlimit="10"
     fill="none"
     fill-rule="evenodd"
     id="path26" />
  <path
     d="m 134.35596,81.334167 h 24"
     stroke="#000000"
     stroke-width="2.33417"
     stroke-linecap="round"
     stroke-linejoin="bevel"
     stroke-miterlimit="10"
     fill="none"
     fill-rule="evenodd"
     id="path28" />
  <path
     d="m 181.35596,81.334167 h 23"
     stroke="#000000"
     stroke-width="2.33417"
     stroke-linecap="round"
     stroke-linejoin="bevel"
     stroke-miterlimit="10"
     fill="none"
     fill-rule="evenodd"
     id="path30" />
  <path
     d="m 158.35596,81.334167 23,-14"
     stroke="#000000"
     stroke-width="2.33417"
     stroke-linecap="round"
     stroke-linejoin="bevel"
     stroke-miterlimit="10"
     fill="none"
     fill-rule="evenodd"
     id="path32" />
  <path
     d="m 391.35596,221.33417 -14,24"
     stroke="#000000"
     stroke-width="2.33417"
     stroke-linecap="round"
     stroke-linejoin="bevel"
     stroke-miterlimit="10"
     fill="none"
     fill-rule="evenodd"
     id="path34" />
  <path
     d="m 377.35596,245.33417 9,-9.333 -4.5,-4.667 z"
     stroke="#000000"
     stroke-width="2.33417"
     stroke-linecap="round"
     stroke-linejoin="bevel"
     stroke-miterlimit="10"
     fill-rule="evenodd"
     id="path36" />
  <path
     d="m 372.35596,244.83417 c 0,-2.485 2.239,-4.5 5,-4.5 2.761,0 5,2.015 5,4.5 0,2.485 -2.239,4.5 -5,4.5 -2.761,0 -5,-2.015 -5,-4.5 z"
     stroke="#000000"
     stroke-width="1.54058"
     stroke-linecap="round"
     stroke-linejoin="bevel"
     stroke-miterlimit="10"
     fill-rule="evenodd"
     id="path38" />
  <path
     d="m 386.35596,221.83417 c 0,-2.485 2.239,-4.5 5,-4.5 2.761,0 5,2.015 5,4.5 0,2.485 -2.239,4.5 -5,4.5 -2.761,0 -5,-2.015 -5,-4.5 z"
     stroke="#000000"
     stroke-width="1.54058"
     stroke-linecap="round"
     stroke-linejoin="bevel"
     stroke-miterlimit="10"
     fill-rule="evenodd"
     id="path40" />
  <path
     d="m 391.35596,221.33417 v -23"
     stroke="#000000"
     stroke-width="2.33417"
     stroke-linecap="round"
     stroke-linejoin="bevel"
     stroke-miterlimit="10"
     fill="none"
     fill-rule="evenodd"
     id="path42" />
  <path
     d="m 400.35596,244.83417 c 0,-2.485 2.239,-4.5 5,-4.5 2.761,0 5,2.015 5,4.5 0,2.485 -2.239,4.5 -5,4.5 -2.761,0 -5,-2.015 -5,-4.5 z"
     stroke="#000000"
     stroke-width="1.54058"
     stroke-linecap="round"
     stroke-linejoin="bevel"
     stroke-miterlimit="10"
     fill-rule="evenodd"
     id="path44" />
  <path
     d="m 377.35596,245.33417 h -9"
     stroke="#000000"
     stroke-width="2.33417"
     stroke-linecap="round"
     stroke-linejoin="bevel"
     stroke-miterlimit="10"
     fill="none"
     fill-rule="evenodd"
     id="path46" />
  <path
     d="m 414.35596,245.33417 h -9"
     stroke="#000000"
     stroke-width="2.33417"
     stroke-linecap="round"
     stroke-linejoin="bevel"
     stroke-miterlimit="10"
     fill="none"
     fill-rule="evenodd"
     id="path48" />
  <path
     d="m 410.35596,156.33417 h -38"
     stroke="#000000"
     stroke-width="2.33417"
     stroke-linecap="round"
     stroke-linejoin="bevel"
     stroke-miterlimit="10"
     fill="none"
     fill-rule="evenodd"
     id="path50" />
  <path
     d="m 372.35596,170.33417 h 38"
     stroke="#000000"
     stroke-width="2.33417"
     stroke-linecap="round"
     stroke-linejoin="bevel"
     stroke-miterlimit="10"
     fill="none"
     fill-rule="evenodd"
     id="path52" />
  <path
     d="m 391.35596,170.33417 v 28"
     stroke="#000000"
     stroke-width="2.33417"
     stroke-linecap="round"
     stroke-linejoin="bevel"
     stroke-miterlimit="10"
     fill="none"
     fill-rule="evenodd"
     id="path54" />
  <path
     d="m 391.35596,156.33417 v -28"
     stroke="#000000"
     stroke-width="2.33417"
     stroke-linecap="round"
     stroke-linejoin="bevel"
     stroke-miterlimit="10"
     fill="none"
     fill-rule="evenodd"
     id="path56" />
  <path
     d="m 485.35596,221.33417 -14,24"
     stroke="#000000"
     stroke-width="2.33417"
     stroke-linecap="round"
     stroke-linejoin="bevel"
     stroke-miterlimit="10"
     fill="none"
     fill-rule="evenodd"
     id="path58" />
  <path
     d="m 471.35596,245.33417 9,-9.333 -4.5,-4.667 z"
     stroke="#000000"
     stroke-width="2.33417"
     stroke-linecap="round"
     stroke-linejoin="bevel"
     stroke-miterlimit="10"
     fill-rule="evenodd"
     id="path60" />
  <path
     d="m 466.35596,244.83417 c 0,-2.485 2.015,-4.5 4.5,-4.5 2.485,0 4.5,2.015 4.5,4.5 0,2.485 -2.015,4.5 -4.5,4.5 -2.485,0 -4.5,-2.015 -4.5,-4.5 z"
     stroke="#000000"
     stroke-width="1.54058"
     stroke-linecap="round"
     stroke-linejoin="bevel"
     stroke-miterlimit="10"
     fill-rule="evenodd"
     id="path62" />
  <path
     d="m 480.35596,221.83417 c 0,-2.485 2.015,-4.5 4.5,-4.5 2.485,0 4.5,2.015 4.5,4.5 0,2.485 -2.015,4.5 -4.5,4.5 -2.485,0 -4.5,-2.015 -4.5,-4.5 z"
     stroke="#000000"
     stroke-width="1.54058"
     stroke-linecap="round"
     stroke-linejoin="bevel"
     stroke-miterlimit="10"
     fill-rule="evenodd"
     id="path64" />
  <path
     d="m 485.35596,221.33417 v -23"
     stroke="#000000"
     stroke-width="2.33417"
     stroke-linecap="round"
     stroke-linejoin="bevel"
     stroke-miterlimit="10"
     fill="none"
     fill-rule="evenodd"
     id="path66" />
  <path
     d="m 494.35596,244.83417 c 0,-2.485 2.015,-4.5 4.5,-4.5 2.485,0 4.5,2.015 4.5,4.5 0,2.485 -2.015,4.5 -4.5,4.5 -2.485,0 -4.5,-2.015 -4.5,-4.5 z"
     stroke="#000000"
     stroke-width="1.54058"
     stroke-linecap="round"
     stroke-linejoin="bevel"
     stroke-miterlimit="10"
     fill-rule="evenodd"
     id="path68" />
  <path
     d="m 471.35596,245.33417 h -10"
     stroke="#000000"
     stroke-width="2.33417"
     stroke-linecap="round"
     stroke-linejoin="bevel"
     stroke-miterlimit="10"
     fill="none"
     fill-rule="evenodd"
     id="path70" />
  <path
     d="m 508.35596,245.33417 h -9"
     stroke="#000000"
     stroke-width="2.33417"
     stroke-linecap="round"
     stroke-linejoin="bevel"
     stroke-miterlimit="10"
     fill="none"
     fill-rule="evenodd"
     id="path72" />
  <path
     d="m 503.35596,156.33417 h -37"
     stroke="#000000"
     stroke-width="2.33417"
     stroke-linecap="round"
     stroke-linejoin="bevel"
     stroke-miterlimit="10"
     fill="none"
     fill-rule="evenodd"
     id="path74" />
  <path
     d="m 466.35596,170.33417 h 37"
     stroke="#000000"
     stroke-width="2.33417"
     stroke-linecap="round"
     stroke-linejoin="bevel"
     stroke-miterlimit="10"
     fill="none"
     fill-rule="evenodd"
     id="path76" />
  <path
     d="m 485.35596,170.33417 v 28"
     stroke="#000000"
     stroke-width="2.33417"
     stroke-linecap="round"
     stroke-linejoin="bevel"
     stroke-miterlimit="10"
     fill="none"
     fill-rule="evenodd"
     id="path78" />
  <path
     d="m 485.35596,156.33417 v -28"
     stroke="#000000"
     stroke-width="2.33417"
     stroke-linecap="round"
     stroke-linejoin="bevel"
     stroke-miterlimit="10"
     fill="none"
     fill-rule="evenodd"
     id="path80" />
  <path
     d="m 671.35596,221.33417 -14,24"
     stroke="#000000"
     stroke-width="2.33417"
     stroke-linecap="round"
     stroke-linejoin="bevel"
     stroke-miterlimit="10"
     fill="none"
     fill-rule="evenodd"
     id="path82" />
  <path
     d="m 657.35596,245.33417 10,-9.333 -5,-4.667 z"
     stroke="#000000"
     stroke-width="2.33417"
     stroke-linecap="round"
     stroke-linejoin="bevel"
     stroke-miterlimit="10"
     fill-rule="evenodd"
     id="path84" />
  <path
     d="m 653.35596,244.83417 c 0,-2.485 2.015,-4.5 4.5,-4.5 2.485,0 4.5,2.015 4.5,4.5 0,2.485 -2.015,4.5 -4.5,4.5 -2.485,0 -4.5,-2.015 -4.5,-4.5 z"
     stroke="#000000"
     stroke-width="1.54058"
     stroke-linecap="round"
     stroke-linejoin="bevel"
     stroke-miterlimit="10"
     fill-rule="evenodd"
     id="path86" />
  <path
     d="m 667.35596,221.83417 c 0,-2.485 2.015,-4.5 4.5,-4.5 2.485,0 4.5,2.015 4.5,4.5 0,2.485 -2.015,4.5 -4.5,4.5 -2.485,0 -4.5,-2.015 -4.5,-4.5 z"
     stroke="#000000"
     stroke-width="1.54058"
     stroke-linecap="round"
     stroke-linejoin="bevel"
     stroke-miterlimit="10"
     fill-rule="evenodd"
     id="path88" />
  <path
     d="m 671.35596,221.33417 v -23"
     stroke="#000000"
     stroke-width="2.33417"
     stroke-linecap="round"
     stroke-linejoin="bevel"
     stroke-miterlimit="10"
     fill="none"
     fill-rule="evenodd"
     id="path90" />
  <path
     d="m 681.35596,244.83417 c 0,-2.485 2.015,-4.5 4.5,-4.5 2.485,0 4.5,2.015 4.5,4.5 0,2.485 -2.015,4.5 -4.5,4.5 -2.485,0 -4.5,-2.015 -4.5,-4.5 z"
     stroke="#000000"
     stroke-width="1.54058"
     stroke-linecap="round"
     stroke-linejoin="bevel"
     stroke-miterlimit="10"
     fill-rule="evenodd"
     id="path92" />
  <path
     d="m 657.35596,245.33417 h -9"
     stroke="#000000"
     stroke-width="2.33417"
     stroke-linecap="round"
     stroke-linejoin="bevel"
     stroke-miterlimit="10"
     fill="none"
     fill-rule="evenodd"
     id="path94" />
  <path
     d="m 695.35596,245.33417 h -10"
     stroke="#000000"
     stroke-width="2.33417"
     stroke-linecap="round"
     stroke-linejoin="bevel"
     stroke-miterlimit="10"
     fill="none"
     fill-rule="evenodd"
     id="path96" />
  <path
     d="m 690.35596,156.33417 h -37"
     stroke="#000000"
     stroke-width="2.33417"
     stroke-linecap="round"
     stroke-linejoin="bevel"
     stroke-miterlimit="10"
     fill="none"
     fill-rule="evenodd"
     id="path98" />
  <path
     d="m 653.35596,170.33417 h 37"
     stroke="#000000"
     stroke-width="2.33417"
     stroke-linecap="round"
     stroke-linejoin="bevel"
     stroke-miterlimit="10"
     fill="none"
     fill-rule="evenodd"
     id="path100" />
  <path
     d="m 671.35596,170.33417 v 28"
     stroke="#000000"
     stroke-width="2.33417"
     stroke-linecap="round"
     stroke-linejoin="bevel"
     stroke-miterlimit="10"
     fill="none"
     fill-rule="evenodd"
     id="path102" />
  <path
     d="m 671.35596,156.33417 v -28"
     stroke="#000000"
     stroke-width="2.33417"
     stroke-linecap="round"
     stroke-linejoin="bevel"
     stroke-miterlimit="10"
     fill="none"
     fill-rule="evenodd"
     id="path104" />
  <path
     d="m 765.35596,221.33417 -14,24"
     stroke="#000000"
     stroke-width="2.33417"
     stroke-linecap="round"
     stroke-linejoin="bevel"
     stroke-miterlimit="10"
     fill="none"
     fill-rule="evenodd"
     id="path106" />
  <path
     d="m 751.35596,245.33417 9,-9.333 -4.5,-4.667 z"
     stroke="#000000"
     stroke-width="2.33417"
     stroke-linecap="round"
     stroke-linejoin="bevel"
     stroke-miterlimit="10"
     fill-rule="evenodd"
     id="path108" />
  <path
     d="m 746.35596,244.83417 c 0,-2.485 2.015,-4.5 4.5,-4.5 2.485,0 4.5,2.015 4.5,4.5 0,2.485 -2.015,4.5 -4.5,4.5 -2.485,0 -4.5,-2.015 -4.5,-4.5 z"
     stroke="#000000"
     stroke-width="1.54058"
     stroke-linecap="round"
     stroke-linejoin="bevel"
     stroke-miterlimit="10"
     fill-rule="evenodd"
     id="path110" />
  <path
     d="m 760.35596,221.83417 c 0,-2.485 2.015,-4.5 4.5,-4.5 2.485,0 4.5,2.015 4.5,4.5 0,2.485 -2.015,4.5 -4.5,4.5 -2.485,0 -4.5,-2.015 -4.5,-4.5 z"
     stroke="#000000"
     stroke-width="1.54058"
     stroke-linecap="round"
     stroke-linejoin="bevel"
     stroke-miterlimit="10"
     fill-rule="evenodd"
     id="path112" />
  <path
     d="m 765.35596,221.33417 v -23"
     stroke="#000000"
     stroke-width="2.33417"
     stroke-linecap="round"
     stroke-linejoin="bevel"
     stroke-miterlimit="10"
     fill="none"
     fill-rule="evenodd"
     id="path114" />
  <path
     d="m 774.35596,244.83417 c 0,-2.485 2.015,-4.5 4.5,-4.5 2.485,0 4.5,2.015 4.5,4.5 0,2.485 -2.015,4.5 -4.5,4.5 -2.485,0 -4.5,-2.015 -4.5,-4.5 z"
     stroke="#000000"
     stroke-width="1.54058"
     stroke-linecap="round"
     stroke-linejoin="bevel"
     stroke-miterlimit="10"
     fill-rule="evenodd"
     id="path116" />
  <path
     d="m 751.35596,245.33417 h -10"
     stroke="#000000"
     stroke-width="2.33417"
     stroke-linecap="round"
     stroke-linejoin="bevel"
     stroke-miterlimit="10"
     fill="none"
     fill-rule="evenodd"
     id="path118" />
  <path
     d="m 788.35596,245.33417 h -9"
     stroke="#000000"
     stroke-width="2.33417"
     stroke-linecap="round"
     stroke-linejoin="bevel"
     stroke-miterlimit="10"
     fill="none"
     fill-rule="evenodd"
     id="path120" />
  <path
     d="m 783.35596,156.33417 h -37"
     stroke="#000000"
     stroke-width="2.33417"
     stroke-linecap="round"
     stroke-linejoin="bevel"
     stroke-miterlimit="10"
     fill="none"
     fill-rule="evenodd"
     id="path122" />
  <path
     d="m 746.35596,170.33417 h 37"
     stroke="#000000"
     stroke-width="2.33417"
     stroke-linecap="round"
     stroke-linejoin="bevel"
     stroke-miterlimit="10"
     fill="none"
     fill-rule="evenodd"
     id="path124" />
  <path
     d="m 765.35596,170.33417 v 28"
     stroke="#000000"
     stroke-width="2.33417"
     stroke-linecap="round"
     stroke-linejoin="bevel"
     stroke-miterlimit="10"
     fill="none"
     fill-rule="evenodd"
     id="path126" />
  <path
     d="m 765.35596,156.33417 v -28"
     stroke="#000000"
     stroke-width="2.33417"
     stroke-linecap="round"
     stroke-linejoin="bevel"
     stroke-miterlimit="10"
     fill="none"
     fill-rule="evenodd"
     id="path128" />
  <path
     d="m 858.35596,221.33417 v -23"
     stroke="#000000"
     stroke-width="2.33417"
     stroke-linecap="round"
     stroke-linejoin="bevel"
     stroke-miterlimit="10"
     fill="none"
     fill-rule="evenodd"
     id="path130" />
  <path
     d="m 877.35596,156.33417 h -38"
     stroke="#000000"
     stroke-width="2.33417"
     stroke-linecap="round"
     stroke-linejoin="bevel"
     stroke-miterlimit="10"
     fill="none"
     fill-rule="evenodd"
     id="path132" />
  <path
     d="m 839.35596,170.33417 h 38"
     stroke="#000000"
     stroke-width="2.33417"
     stroke-linecap="round"
     stroke-linejoin="bevel"
     stroke-miterlimit="10"
     fill="none"
     fill-rule="evenodd"
     id="path134" />
  <path
     d="m 858.35596,170.33417 v 28"
     stroke="#000000"
     stroke-width="2.33417"
     stroke-linecap="round"
     stroke-linejoin="bevel"
     stroke-miterlimit="10"
     fill="none"
     fill-rule="evenodd"
     id="path136" />
  <path
     d="m 858.35596,156.33417 v -28"
     stroke="#000000"
     stroke-width="2.33417"
     stroke-linecap="round"
     stroke-linejoin="bevel"
     stroke-miterlimit="10"
     fill="none"
     fill-rule="evenodd"
     id="path138" />
  <path
     d="m 204.35596,81.334167 h 654"
     stroke="#000000"
     stroke-width="2.33417"
     stroke-linecap="round"
     stroke-linejoin="bevel"
     stroke-miterlimit="10"
     fill="none"
     fill-rule="evenodd"
     id="path140" />
  <path
     d="M 858.35596,81.334167 V 128.33417"
     stroke="#000000"
     stroke-width="2.33417"
     stroke-linecap="round"
     stroke-linejoin="bevel"
     stroke-miterlimit="10"
     fill="none"
     fill-rule="evenodd"
     id="path142" />
  <path
     d="M 765.35596,128.33417 V 81.334167"
     stroke="#000000"
     stroke-width="2.33417"
     stroke-linecap="round"
     stroke-linejoin="bevel"
     stroke-miterlimit="10"
     fill="none"
     fill-rule="evenodd"
     id="path144" />
  <path
     d="M 671.35596,128.33417 V 81.334167"
     stroke="#000000"
     stroke-width="2.33417"
     stroke-linecap="round"
     stroke-linejoin="bevel"
     stroke-miterlimit="10"
     fill="none"
     fill-rule="evenodd"
     id="path146" />
  <path
     d="M 485.35596,128.33417 V 81.334167"
     stroke="#000000"
     stroke-width="2.33417"
     stroke-linecap="round"
     stroke-linejoin="bevel"
     stroke-miterlimit="10"
     fill="none"
     fill-rule="evenodd"
     id="path148" />
  <path
     d="M 391.35596,128.33417 V 81.334167"
     stroke="#000000"
     stroke-width="2.33417"
     stroke-linecap="round"
     stroke-linejoin="bevel"
     stroke-miterlimit="10"
     fill="none"
     fill-rule="evenodd"
     id="path150" />
  <path
     d="M 298.35596,128.33417 V 81.334167"
     stroke="#000000"
     stroke-width="2.33417"
     stroke-linecap="round"
     stroke-linejoin="bevel"
     stroke-miterlimit="10"
     fill="none"
     fill-rule="evenodd"
     id="path152" />
  <path
     d="m 134.35596,81.334167 h -23"
     stroke="#000000"
     stroke-width="2.33417"
     stroke-linecap="round"
     stroke-linejoin="bevel"
     stroke-miterlimit="10"
     fill="none"
     fill-rule="evenodd"
     id="path154" />
  <path
     d="m 788.35596,314.33417 h -607"
     stroke="#000000"
     stroke-width="2.33417"
     stroke-linecap="round"
     stroke-linejoin="bevel"
     stroke-miterlimit="10"
     fill="none"
     fill-rule="evenodd"
     id="path156" />
  <path
     d="m 181.35596,314.33417 h -70"
     stroke="#000000"
     stroke-width="2.33417"
     stroke-linecap="round"
     stroke-linejoin="bevel"
     stroke-miterlimit="10"
     fill="none"
     fill-rule="evenodd"
     id="path158" />
  <path
     d="m 788.35596,245.33417 v 70"
     stroke="#000000"
     stroke-width="2.33417"
     stroke-linecap="round"
     stroke-linejoin="bevel"
     stroke-miterlimit="10"
     fill="none"
     fill-rule="evenodd"
     id="path160" />
  <path
     d="m 695.35596,245.33417 v 70"
     stroke="#000000"
     stroke-width="2.33417"
     stroke-linecap="round"
     stroke-linejoin="bevel"
     stroke-miterlimit="10"
     fill="none"
     fill-rule="evenodd"
     id="path162" />
  <path
     d="m 508.35596,245.33417 v 70"
     stroke="#000000"
     stroke-width="2.33417"
     stroke-linecap="round"
     stroke-linejoin="bevel"
     stroke-miterlimit="10"
     fill="none"
     fill-rule="evenodd"
     id="path164" />
  <path
     d="m 414.35596,245.33417 v 70"
     stroke="#000000"
     stroke-width="2.33417"
     stroke-linecap="round"
     stroke-linejoin="bevel"
     stroke-miterlimit="10"
     fill="none"
     fill-rule="evenodd"
     id="path166" />
  <path
     d="m 321.35596,245.33417 v 70"
     stroke="#000000"
     stroke-width="2.33417"
     stroke-linecap="round"
     stroke-linejoin="bevel"
     stroke-miterlimit="10"
     fill="none"
     fill-rule="evenodd"
     id="path168" />
  <path
     d="m 858.35596,81.334167 h 93"
     stroke="#000000"
     stroke-width="2.33417"
     stroke-linecap="round"
     stroke-linejoin="bevel"
     stroke-miterlimit="10"
     fill="none"
     fill-rule="evenodd"
     id="path170" />
  <path
     d="m 111.35596,268.33417 h 747"
     stroke="#000000"
     stroke-width="2.33417"
     stroke-linecap="round"
     stroke-linejoin="bevel"
     stroke-miterlimit="10"
     fill="none"
     fill-rule="evenodd"
     id="path172" />
  <path
     d="m 858.35596,268.33417 v -47"
     stroke="#000000"
     stroke-width="2.33417"
     stroke-linecap="round"
     stroke-linejoin="bevel"
     stroke-miterlimit="10"
     fill="none"
     fill-rule="evenodd"
     id="path174" />
  <path
     d="m 741.35596,245.33417 v 23"
     stroke="#000000"
     stroke-width="2.33417"
     stroke-linecap="round"
     stroke-linejoin="bevel"
     stroke-miterlimit="10"
     fill="none"
     fill-rule="evenodd"
     id="path176" />
  <path
     d="m 648.35596,245.33417 v 23"
     stroke="#000000"
     stroke-width="2.33417"
     stroke-linecap="round"
     stroke-linejoin="bevel"
     stroke-miterlimit="10"
     fill="none"
     fill-rule="evenodd"
     id="path178" />
  <path
     d="m 461.35596,245.33417 v 23"
     stroke="#000000"
     stroke-width="2.33417"
     stroke-linecap="round"
     stroke-linejoin="bevel"
     stroke-miterlimit="10"
     fill="none"
     fill-rule="evenodd"
     id="path180" />
  <path
     d="m 368.35596,245.33417 v 23"
     stroke="#000000"
     stroke-width="2.33417"
     stroke-linecap="round"
     stroke-linejoin="bevel"
     stroke-miterlimit="10"
     fill="none"
     fill-rule="evenodd"
     id="path182" />
  <path
     d="m 274.35596,245.33417 v 23"
     stroke="#000000"
     stroke-width="2.33417"
     stroke-linecap="round"
     stroke-linejoin="bevel"
     stroke-miterlimit="10"
     fill="none"
     fill-rule="evenodd"
     id="path184" />
  <path
     d="m 293.35596,81.334167 c 0,-2.761 2.015,-5 4.5,-5 2.485,0 4.5,2.239 4.5,5 0,2.761 -2.015,5 -4.5,5 -2.485,0 -4.5,-2.239 -4.5,-5 z"
     stroke="#000000"
     stroke-width="1.54058"
     stroke-linecap="round"
     stroke-linejoin="bevel"
     stroke-miterlimit="10"
     fill-rule="evenodd"
     id="path186" />
  <path
     d="m 386.35596,81.334167 c 0,-2.761 2.239,-5 5,-5 2.761,0 5,2.239 5,5 0,2.761 -2.239,5 -5,5 -2.761,0 -5,-2.239 -5,-5 z"
     stroke="#000000"
     stroke-width="1.54058"
     stroke-linecap="round"
     stroke-linejoin="bevel"
     stroke-miterlimit="10"
     fill-rule="evenodd"
     id="path188" />
  <path
     d="m 480.35596,81.334167 c 0,-2.761 2.015,-5 4.5,-5 2.485,0 4.5,2.239 4.5,5 0,2.761 -2.015,5 -4.5,5 -2.485,0 -4.5,-2.239 -4.5,-5 z"
     stroke="#000000"
     stroke-width="1.54058"
     stroke-linecap="round"
     stroke-linejoin="bevel"
     stroke-miterlimit="10"
     fill-rule="evenodd"
     id="path190" />
  <path
     d="m 667.35596,81.334167 c 0,-2.761 2.015,-5 4.5,-5 2.485,0 4.5,2.239 4.5,5 0,2.761 -2.015,5 -4.5,5 -2.485,0 -4.5,-2.239 -4.5,-5 z"
     stroke="#000000"
     stroke-width="1.54058"
     stroke-linecap="round"
     stroke-linejoin="bevel"
     stroke-miterlimit="10"
     fill-rule="evenodd"
     id="path192" />
  <path
     d="m 760.35596,81.334167 c 0,-2.761 2.015,-5 4.5,-5 2.485,0 4.5,2.239 4.5,5 0,2.761 -2.015,5 -4.5,5 -2.485,0 -4.5,-2.239 -4.5,-5 z"
     stroke="#000000"
     stroke-width="1.54058"
     stroke-linecap="round"
     stroke-linejoin="bevel"
     stroke-miterlimit="10"
     fill-rule="evenodd"
     id="path194" />
  <path
     d="m 853.35596,81.334167 c 0,-2.761 2.239,-5 5,-5 2.761,0 5,2.239 5,5 0,2.761 -2.239,5 -5,5 -2.761,0 -5,-2.239 -5,-5 z"
     stroke="#000000"
     stroke-width="1.54058"
     stroke-linecap="round"
     stroke-linejoin="bevel"
     stroke-miterlimit="10"
     fill-rule="evenodd"
     id="path196" />
  <path
     d="m 737.35596,268.33417 c 0,-2.761 2.015,-5 4.5,-5 2.485,0 4.5,2.239 4.5,5 0,2.761 -2.015,5 -4.5,5 -2.485,0 -4.5,-2.239 -4.5,-5 z"
     stroke="#000000"
     stroke-width="1.54058"
     stroke-linecap="round"
     stroke-linejoin="bevel"
     stroke-miterlimit="10"
     fill-rule="evenodd"
     id="path198" />
  <path
     d="m 643.35596,268.33417 c 0,-2.761 2.239,-5 5,-5 2.761,0 5,2.239 5,5 0,2.761 -2.239,5 -5,5 -2.761,0 -5,-2.239 -5,-5 z"
     stroke="#000000"
     stroke-width="1.54058"
     stroke-linecap="round"
     stroke-linejoin="bevel"
     stroke-miterlimit="10"
     fill-rule="evenodd"
     id="path200" />
  <path
     d="m 457.35596,268.33417 c 0,-2.761 2.015,-5 4.5,-5 2.485,0 4.5,2.239 4.5,5 0,2.761 -2.015,5 -4.5,5 -2.485,0 -4.5,-2.239 -4.5,-5 z"
     stroke="#000000"
     stroke-width="1.54058"
     stroke-linecap="round"
     stroke-linejoin="bevel"
     stroke-miterlimit="10"
     fill-rule="evenodd"
     id="path202" />
  <path
     d="m 363.35596,268.33417 c 0,-2.761 2.015,-5 4.5,-5 2.485,0 4.5,2.239 4.5,5 0,2.761 -2.015,5 -4.5,5 -2.485,0 -4.5,-2.239 -4.5,-5 z"
     stroke="#000000"
     stroke-width="1.54058"
     stroke-linecap="round"
     stroke-linejoin="bevel"
     stroke-miterlimit="10"
     fill-rule="evenodd"
     id="path204" />
  <path
     d="m 270.35596,268.33417 c 0,-2.761 2.015,-5 4.5,-5 2.485,0 4.5,2.239 4.5,5 0,2.761 -2.015,5 -4.5,5 -2.485,0 -4.5,-2.239 -4.5,-5 z"
     stroke="#000000"
     stroke-width="1.54058"
     stroke-linecap="round"
     stroke-linejoin="bevel"
     stroke-miterlimit="10"
     fill-rule="evenodd"
     id="path206" />
  <path
     d="m 316.35596,314.83417 c 0,-2.485 2.239,-4.5 5,-4.5 2.761,0 5,2.015 5,4.5 0,2.485 -2.239,4.5 -5,4.5 -2.761,0 -5,-2.015 -5,-4.5 z"
     stroke="#000000"
     stroke-width="1.54058"
     stroke-linecap="round"
     stroke-linejoin="bevel"
     stroke-miterlimit="10"
     fill-rule="evenodd"
     id="path208" />
  <path
     d="m 410.35596,314.83417 c 0,-2.485 2.015,-4.5 4.5,-4.5 2.485,0 4.5,2.015 4.5,4.5 0,2.485 -2.015,4.5 -4.5,4.5 -2.485,0 -4.5,-2.015 -4.5,-4.5 z"
     stroke="#000000"
     stroke-width="1.54058"
     stroke-linecap="round"
     stroke-linejoin="bevel"
     stroke-miterlimit="10"
     fill-rule="evenodd"
     id="path210" />
  <path
     d="m 503.35596,314.83417 c 0,-2.485 2.239,-4.5 5,-4.5 2.761,0 5,2.015 5,4.5 0,2.485 -2.239,4.5 -5,4.5 -2.761,0 -5,-2.015 -5,-4.5 z"
     stroke="#000000"
     stroke-width="1.54058"
     stroke-linecap="round"
     stroke-linejoin="bevel"
     stroke-miterlimit="10"
     fill-rule="evenodd"
     id="path212" />
  <path
     d="m 690.35596,314.83417 c 0,-2.485 2.015,-4.5 4.5,-4.5 2.485,0 4.5,2.015 4.5,4.5 0,2.485 -2.015,4.5 -4.5,4.5 -2.485,0 -4.5,-2.015 -4.5,-4.5 z"
     stroke="#000000"
     stroke-width="1.54058"
     stroke-linecap="round"
     stroke-linejoin="bevel"
     stroke-miterlimit="10"
     fill-rule="evenodd"
     id="path214" />
  <path
     d="m 783.35596,314.83417 c 0,-2.485 2.239,-4.5 5,-4.5 2.761,0 5,2.015 5,4.5 0,2.485 -2.239,4.5 -5,4.5 -2.761,0 -5,-2.015 -5,-4.5 z"
     stroke="#000000"
     stroke-width="1.54058"
     stroke-linecap="round"
     stroke-linejoin="bevel"
     stroke-miterlimit="10"
     fill-rule="evenodd"
     id="path216" />
  <path
     d="m 106.35596,81.334167 h 5"
     stroke="#000000"
     stroke-width="2.33417"
     stroke-linecap="round"
     stroke-linejoin="bevel"
     stroke-miterlimit="10"
     fill="none"
     fill-rule="evenodd"
     id="path218" />
  <path
     d="m 106.35596,81.334167 v 0 l -4.5,-5 H 88.355957 v 10 h 13.500003 z"
     stroke="#000000"
     stroke-width="2.33417"
     stroke-linecap="round"
     stroke-linejoin="bevel"
     stroke-miterlimit="10"
     fill="none"
     fill-rule="evenodd"
     id="path220" />
  <path
     d="m 951.35596,81.334167 h 5"
     stroke="#000000"
     stroke-width="2.33417"
     stroke-linecap="round"
     stroke-linejoin="bevel"
     stroke-miterlimit="10"
     fill="none"
     fill-rule="evenodd"
     id="path222" />
  <path
     d="m 975.35596,81.334167 v 0 l -4.75,-5 h -14.25 v 10 h 14.25 z"
     stroke="#000000"
     stroke-width="2.33417"
     stroke-linecap="round"
     stroke-linejoin="bevel"
     stroke-miterlimit="10"
     fill="none"
     fill-rule="evenodd"
     id="path224" />
  <path
     d="m 97.355957,347.33417 h 28.000003 l -14,14 v 0 z"
     stroke="#000000"
     stroke-width="2.33417"
     stroke-linecap="round"
     stroke-linejoin="bevel"
     stroke-miterlimit="10"
     fill="none"
     fill-rule="evenodd"
     id="path226" />
  <path
     d="m 111.35596,338.33417 v 9"
     stroke="#000000"
     stroke-width="2.33417"
     stroke-linecap="round"
     stroke-linejoin="bevel"
     stroke-miterlimit="10"
     fill="none"
     fill-rule="evenodd"
     id="path228" />
  <path
     d="m 111.35596,315.33417 v 23"
     stroke="#000000"
     stroke-width="2.33417"
     stroke-linecap="round"
     stroke-linejoin="bevel"
     stroke-miterlimit="10"
     fill="none"
     fill-rule="evenodd"
     id="path230" />
  <path
     d="m 111.35596,268.33417 v -47"
     stroke="#000000"
     stroke-width="2.33417"
     stroke-linecap="round"
     stroke-linejoin="bevel"
     stroke-miterlimit="10"
     fill="none"
     fill-rule="evenodd"
     id="path232" />
  <path
     d="m 102.35596,221.33417 h 18"
     stroke="#000000"
     stroke-width="2.33417"
     stroke-linecap="round"
     stroke-linejoin="bevel"
     stroke-miterlimit="10"
     fill="none"
     fill-rule="evenodd"
     id="path234" />
  <text
     font-family="'Cambria Math', 'Cambria Math_MSFontService', sans-serif"
     font-weight="400"
     font-size="24px"
     id="text236"
     x="875.16595"
     y="138.33417">𝐶</text>
  <text
     font-family="'Cambria Math', 'Cambria Math_MSFontService', sans-serif"
     font-weight="400"
     font-size="17.52px"
     id="text238"
     x="888.09296"
     y="143.33417">𝑢</text>
  <text
     font-family="'Cambria Math', 'Cambria Math_MSFontService', sans-serif"
     font-weight="400"
     font-size="17.52px"
     id="text240"
     x="899.72595"
     y="143.33417">,</text>
  <text
     font-family="'Cambria Math', 'Cambria Math_MSFontService', sans-serif"
     font-weight="400"
     font-size="17.52px"
     id="text242"
     x="903.39294"
     y="143.33417">𝑇𝐸𝑅𝑀</text>
  <text
     font-family="'Cambria Math', 'Cambria Math_MSFontService', sans-serif"
     font-weight="400"
     font-size="24px"
     id="text244"
     x="781.58197"
     y="137.33417">𝐶</text>
  <text
     font-family="'Cambria Math', 'Cambria Math_MSFontService', sans-serif"
     font-weight="400"
     font-size="17.52px"
     id="text246"
     x="794.50793"
     y="142.33417">𝑢</text>
  <text
     font-family="'Cambria Math', 'Cambria Math_MSFontService', sans-serif"
     font-weight="400"
     font-size="24px"
     id="text248"
     x="688.20398"
     y="137.33417">2𝐶</text>
  <text
     font-family="'Cambria Math', 'Cambria Math_MSFontService', sans-serif"
     font-weight="400"
     font-size="17.52px"
     id="text250"
     x="714.46393"
     y="142.33417">𝑢</text>
  <text
     font-family="'Cambria Math', 'Cambria Math_MSFontService', sans-serif"
     font-weight="400"
     font-size="24px"
     id="text252"
     x="211.10196"
     y="137.33417">128𝐶</text>
  <text
     font-family="'Cambria Math', 'Cambria Math_MSFontService', sans-serif"
     font-weight="400"
     font-size="17.52px"
     id="text254"
     x="264.02896"
     y="142.33417">𝑢</text>
  <text
     font-family="'Cambria Math', 'Cambria Math_MSFontService', sans-serif"
     font-weight="400"
     font-size="24px"
     id="text256"
     x="330.40396"
     y="137.33417">64𝐶</text>
  <text
     font-family="'Cambria Math', 'Cambria Math_MSFontService', sans-serif"
     font-weight="400"
     font-size="17.52px"
     id="text258"
     x="369.99796"
     y="142.33417">𝑢</text>
  <text
     font-family="'Cambria Math', 'Cambria Math_MSFontService', sans-serif"
     font-weight="400"
     font-size="24px"
     id="text260"
     x="421.66296"
     y="137.33417">32𝐶</text>
  <text
     font-family="'Cambria Math', 'Cambria Math_MSFontService', sans-serif"
     font-weight="400"
     font-size="17.52px"
     id="text262"
     x="461.25696"
     y="142.33417">𝑢</text>
  <text
     font-family="'Cambria Math', 'Cambria Math_MSFontService', sans-serif"
     font-weight="400"
     font-size="24px"
     id="text264"
     x="555.01294"
     y="172.33417">∙</text>
  <text
     font-family="'Cambria Math', 'Cambria Math_MSFontService', sans-serif"
     font-weight="400"
     font-size="24px"
     id="text266"
     x="561.84595"
     y="172.33417">∙</text>
  <text
     font-family="'Cambria Math', 'Cambria Math_MSFontService', sans-serif"
     font-weight="400"
     font-size="24px"
     id="text268"
     x="568.67896"
     y="172.33417">∙</text>
  <text
     font-family="'Cambria Math', 'Cambria Math_MSFontService', sans-serif"
     font-weight="400"
     font-size="24px"
     id="text270"
     x="580.84595"
     y="172.33417">⋯</text>
  <text
     font-family="'Cambria Math', 'Cambria Math_MSFontService', sans-serif"
     font-weight="400"
     font-size="24px"
     id="text272"
     x="40.16346"
     y="82.334167">𝑉</text>
  <text
     font-family="'Cambria Math', 'Cambria Math_MSFontService', sans-serif"
     font-weight="400"
     font-size="17.52px"
     id="text274"
     x="51.976959"
     y="87.334167">𝑖𝑛</text>
  <text
     font-family="'Cambria Math', 'Cambria Math_MSFontService', sans-serif"
     font-weight="400"
     font-size="24px"
     id="text276"
     x="983.91602"
     y="80.334167">𝑉</text>
  <text
     font-family="'Cambria Math', 'Cambria Math_MSFontService', sans-serif"
     font-weight="400"
     font-size="17.52px"
     id="text278"
     x="995.72595"
     y="85.334167">𝑜𝑢𝑡</text>
  <text
     font-family="'Cambria Math', 'Cambria Math_MSFontService', sans-serif"
     font-weight="400"
     font-size="24px"
     id="text280"
     x="93.481964"
     y="206.33417">𝑉</text>
  <text
     font-family="'Cambria Math', 'Cambria Math_MSFontService', sans-serif"
     font-weight="400"
     font-size="17.52px"
     id="text282"
     x="105.29495"
     y="211.33417">𝑑𝑑</text>
  <text
     font-family="'Cambria Math', 'Cambria Math_MSFontService', sans-serif"
     font-weight="400"
     font-size="24px"
     id="text284"
     x="147.45096"
     y="48.334167">𝑆</text>
  <text
     font-family="'Cambria Math', 'Cambria Math_MSFontService', sans-serif"
     font-weight="400"
     font-size="24px"
     id="text286"
     x="160.58496"
     y="48.334167">𝑊</text>
  <text
     font-family="'Cambria Math', 'Cambria Math_MSFontService', sans-serif"
     font-weight="400"
     font-size="17.52px"
     id="text288"
     x="178.26495"
     y="53.334167">𝑠𝑚𝑝</text>
  <g
     id="g831">
    <text
       font-family="'Cambria Math', 'Cambria Math_MSFontService', sans-serif"
       font-weight="400"
       font-size="24px"
       id="text290"
       x="211.86496"
       y="229.33417">𝑆</text>
    <text
       font-family="'Cambria Math', 'Cambria Math_MSFontService', sans-serif"
       font-weight="400"
       font-size="24px"
       id="text292"
       x="224.99796"
       y="229.33417">𝑊</text>
    <text
       font-family="'Cambria Math', 'Cambria Math_MSFontService', sans-serif"
       font-weight="400"
       font-size="17.52px"
       id="text294"
       x="244.64496"
       y="234.33417">𝐵7</text>
  </g>
  <g
     id="g836"
     transform="translate(0,1.9230078)">
    <text
       font-family="'Cambria Math', 'Cambria Math_MSFontService', sans-serif"
       font-weight="400"
       font-size="24px"
       id="text296"
       x="314.58096"
       y="227.33417">𝑆</text>
    <text
       font-family="'Cambria Math', 'Cambria Math_MSFontService', sans-serif"
       font-weight="400"
       font-size="24px"
       id="text298"
       x="327.71396"
       y="227.33417">𝑊</text>
    <text
       font-family="'Cambria Math', 'Cambria Math_MSFontService', sans-serif"
       font-weight="400"
       font-size="17.52px"
       id="text300"
       x="347.36096"
       y="232.33417">𝐵6</text>
  </g>
  <g
     id="g841"
     transform="translate(0,4.9230078)">
    <text
       font-family="'Cambria Math', 'Cambria Math_MSFontService', sans-serif"
       font-weight="400"
       font-size="24px"
       id="text302"
       x="412.62695"
       y="224.33417">𝑆</text>
    <text
       font-family="'Cambria Math', 'Cambria Math_MSFontService', sans-serif"
       font-weight="400"
       font-size="24px"
       id="text304"
       x="425.76096"
       y="224.33417">𝑊</text>
    <text
       font-family="'Cambria Math', 'Cambria Math_MSFontService', sans-serif"
       font-weight="400"
       font-size="17.52px"
       id="text306"
       x="445.40695"
       y="229.33417">𝐵5</text>
  </g>
  <g
     id="g857"
     transform="translate(0,2.9230078)">
    <text
       font-family="'Cambria Math', 'Cambria Math_MSFontService', sans-serif"
       font-weight="400"
       font-size="24px"
       id="text308"
       x="692.76099"
       y="226.33417">𝑆</text>
    <text
       font-family="'Cambria Math', 'Cambria Math_MSFontService', sans-serif"
       font-weight="400"
       font-size="24px"
       id="text310"
       x="705.89496"
       y="226.33417">𝑊</text>
    <text
       font-family="'Cambria Math', 'Cambria Math_MSFontService', sans-serif"
       font-weight="400"
       font-size="17.52px"
       id="text312"
       x="725.54095"
       y="231.33417">𝐵0</text>
  </g>
  <g
     id="g846"
     transform="translate(0,3.0598828)">
    <text
       font-family="'Cambria Math', 'Cambria Math_MSFontService', sans-serif"
       font-weight="400"
       font-size="24px"
       id="text314"
       x="594.46295"
       y="226.33417">𝑆</text>
    <text
       font-family="'Cambria Math', 'Cambria Math_MSFontService', sans-serif"
       font-weight="400"
       font-size="24px"
       id="text316"
       x="607.59595"
       y="226.33417">𝑊</text>
    <text
       font-family="'Cambria Math', 'Cambria Math_MSFontService', sans-serif"
       font-weight="400"
       font-size="17.52px"
       id="text318"
       x="627.24298"
       y="231.33417">𝐵1</text>
  </g>
</svg>
