<?xml version="1.0" encoding="UTF-8" standalone="no"?> 
<!DOCTYPE svg PUBLIC "-//W3C//Dtd SVG 1.1//EN" "http://www.w3.org/Graphics/SVG/1.1/Dtd/svg11.dtd">
<svg width="197.0" height="126.0" version="1.1" xmlns="http://www.w3.org/2000/svg" xmlns:xlink="http://www.w3.org/1999/xlink">
<!-- Created by FidoCadJ ver. 0.24.7, export filter by Davide Bucci -->
<line x1="63.0" y1="81.0" x2="68.0" y2="81.0" style="stroke:#000000;stroke-width:0.5;fill-rule: evenodd;" fill="none"/>
<polygon points="68.0,81.0 66.0,82.0 66.0,80.0" style="stroke:#000000;stroke-width:0.5;fill-rule: evenodd;" fill="#000000"/>
<line x1="63.0" y1="75.0" x2="68.0" y2="75.0" style="stroke:#000000;stroke-width:0.5;fill-rule: evenodd;" fill="none"/>
<line x1="68.0" y1="75.0" x2="68.0" y2="73.0" style="stroke:#000000;stroke-width:0.5;fill-rule: evenodd;" fill="none"/>
<line x1="68.0" y1="81.0" x2="68.0" y2="83.0" style="stroke:#000000;stroke-width:0.5;fill-rule: evenodd;" fill="none"/>
<line x1="58.0" y1="78.0" x2="62.0" y2="78.0" style="stroke:#000000;stroke-width:0.5;fill-rule: evenodd;" fill="none"/>
<line x1="62.0" y1="75.0" x2="62.0" y2="81.0" style="stroke:#000000;stroke-width:0.5;fill-rule: evenodd;" fill="none"/>
<line x1="63.0" y1="74.0" x2="63.0" y2="82.0" style="stroke:#000000;stroke-width:0.5;fill-rule: evenodd;" fill="none"/>
<line x1="68.0" y1="81.0" x2="66.0" y2="81.0" style="stroke:#000000;stroke-width:0.5;fill-rule: evenodd;" fill="none"/>
<line x1="133.0" y1="81.0" x2="128.0" y2="81.0" style="stroke:#000000;stroke-width:0.5;fill-rule: evenodd;" fill="none"/>
<polygon points="128.0,81.0 130.0,80.0 130.0,82.0" style="stroke:#000000;stroke-width:0.5;fill-rule: evenodd;" fill="#000000"/>
<line x1="133.0" y1="75.0" x2="128.0" y2="75.0" style="stroke:#000000;stroke-width:0.5;fill-rule: evenodd;" fill="none"/>
<line x1="128.0" y1="75.0" x2="128.0" y2="73.0" style="stroke:#000000;stroke-width:0.5;fill-rule: evenodd;" fill="none"/>
<line x1="128.0" y1="81.0" x2="128.0" y2="83.0" style="stroke:#000000;stroke-width:0.5;fill-rule: evenodd;" fill="none"/>
<line x1="138.0" y1="78.0" x2="134.0" y2="78.0" style="stroke:#000000;stroke-width:0.5;fill-rule: evenodd;" fill="none"/>
<line x1="134.0" y1="75.0" x2="134.0" y2="81.0" style="stroke:#000000;stroke-width:0.5;fill-rule: evenodd;" fill="none"/>
<line x1="133.0" y1="74.0" x2="133.0" y2="82.0" style="stroke:#000000;stroke-width:0.5;fill-rule: evenodd;" fill="none"/>
<line x1="128.0" y1="81.0" x2="130.0" y2="81.0" style="stroke:#000000;stroke-width:0.5;fill-rule: evenodd;" fill="none"/>
<line x1="93.0" y1="111.0" x2="98.0" y2="111.0" style="stroke:#000000;stroke-width:0.5;fill-rule: evenodd;" fill="none"/>
<polygon points="98.0,111.0 96.0,112.0 96.0,110.0" style="stroke:#000000;stroke-width:0.5;fill-rule: evenodd;" fill="#000000"/>
<line x1="93.0" y1="105.0" x2="98.0" y2="105.0" style="stroke:#000000;stroke-width:0.5;fill-rule: evenodd;" fill="none"/>
<line x1="98.0" y1="105.0" x2="98.0" y2="103.0" style="stroke:#000000;stroke-width:0.5;fill-rule: evenodd;" fill="none"/>
<line x1="98.0" y1="111.0" x2="98.0" y2="113.0" style="stroke:#000000;stroke-width:0.5;fill-rule: evenodd;" fill="none"/>
<line x1="88.0" y1="108.0" x2="92.0" y2="108.0" style="stroke:#000000;stroke-width:0.5;fill-rule: evenodd;" fill="none"/>
<line x1="92.0" y1="105.0" x2="92.0" y2="111.0" style="stroke:#000000;stroke-width:0.5;fill-rule: evenodd;" fill="none"/>
<line x1="93.0" y1="104.0" x2="93.0" y2="112.0" style="stroke:#000000;stroke-width:0.5;fill-rule: evenodd;" fill="none"/>
<line x1="98.0" y1="111.0" x2="96.0" y2="111.0" style="stroke:#000000;stroke-width:0.5;fill-rule: evenodd;" fill="none"/>
<line x1="73.0" y1="51.0" x2="68.0" y2="51.0" style="stroke:#000000;stroke-width:0.5;fill-rule: evenodd;" fill="none"/>
<polygon points="68.0,51.0 70.0,50.0 70.0,52.0" style="stroke:#000000;stroke-width:0.5;fill-rule: evenodd;" fill="#000000"/>
<line x1="73.0" y1="45.0" x2="68.0" y2="45.0" style="stroke:#000000;stroke-width:0.5;fill-rule: evenodd;" fill="none"/>
<line x1="68.0" y1="45.0" x2="68.0" y2="43.0" style="stroke:#000000;stroke-width:0.5;fill-rule: evenodd;" fill="none"/>
<line x1="68.0" y1="51.0" x2="68.0" y2="53.0" style="stroke:#000000;stroke-width:0.5;fill-rule: evenodd;" fill="none"/>
<line x1="78.0" y1="48.0" x2="74.0" y2="48.0" style="stroke:#000000;stroke-width:0.5;fill-rule: evenodd;" fill="none"/>
<line x1="74.0" y1="45.0" x2="74.0" y2="51.0" style="stroke:#000000;stroke-width:0.5;fill-rule: evenodd;" fill="none"/>
<line x1="73.0" y1="44.0" x2="73.0" y2="52.0" style="stroke:#000000;stroke-width:0.5;fill-rule: evenodd;" fill="none"/>
<line x1="68.0" y1="51.0" x2="70.0" y2="51.0" style="stroke:#000000;stroke-width:0.5;fill-rule: evenodd;" fill="none"/>
<line x1="123.0" y1="51.0" x2="128.0" y2="51.0" style="stroke:#000000;stroke-width:0.5;fill-rule: evenodd;" fill="none"/>
<polygon points="128.0,51.0 126.0,52.0 126.0,50.0" style="stroke:#000000;stroke-width:0.5;fill-rule: evenodd;" fill="#000000"/>
<line x1="123.0" y1="45.0" x2="128.0" y2="45.0" style="stroke:#000000;stroke-width:0.5;fill-rule: evenodd;" fill="none"/>
<line x1="128.0" y1="45.0" x2="128.0" y2="43.0" style="stroke:#000000;stroke-width:0.5;fill-rule: evenodd;" fill="none"/>
<line x1="128.0" y1="51.0" x2="128.0" y2="53.0" style="stroke:#000000;stroke-width:0.5;fill-rule: evenodd;" fill="none"/>
<line x1="118.0" y1="48.0" x2="122.0" y2="48.0" style="stroke:#000000;stroke-width:0.5;fill-rule: evenodd;" fill="none"/>
<line x1="122.0" y1="45.0" x2="122.0" y2="51.0" style="stroke:#000000;stroke-width:0.5;fill-rule: evenodd;" fill="none"/>
<line x1="123.0" y1="44.0" x2="123.0" y2="52.0" style="stroke:#000000;stroke-width:0.5;fill-rule: evenodd;" fill="none"/>
<line x1="128.0" y1="51.0" x2="126.0" y2="51.0" style="stroke:#000000;stroke-width:0.5;fill-rule: evenodd;" fill="none"/>
<line x1="123.0" y1="27.0" x2="123.0" y2="19.0" style="stroke:#000000;stroke-width:0.5;fill-rule: evenodd;" fill="none"/>
<line x1="123.0" y1="26.0" x2="128.0" y2="26.0" style="stroke:#000000;stroke-width:0.5;fill-rule: evenodd;" fill="none"/>
<line x1="128.0" y1="26.0" x2="128.0" y2="28.0" style="stroke:#000000;stroke-width:0.5;fill-rule: evenodd;" fill="none"/>
<line x1="123.0" y1="20.0" x2="128.0" y2="20.0" style="stroke:#000000;stroke-width:0.5;fill-rule: evenodd;" fill="none"/>
<polygon points="123.0,20.0 125.0,19.0 125.0,21.0" style="stroke:#000000;stroke-width:0.5;fill-rule: evenodd;" fill="#000000"/>
<line x1="128.0" y1="20.0" x2="128.0" y2="18.0" style="stroke:#000000;stroke-width:0.5;fill-rule: evenodd;" fill="none"/>
<line x1="118.0" y1="23.0" x2="122.0" y2="23.0" style="stroke:#000000;stroke-width:0.5;fill-rule: evenodd;" fill="none"/>
<line x1="122.0" y1="26.0" x2="122.0" y2="20.0" style="stroke:#000000;stroke-width:0.5;fill-rule: evenodd;" fill="none"/>
<line x1="73.0" y1="27.0" x2="73.0" y2="19.0" style="stroke:#000000;stroke-width:0.5;fill-rule: evenodd;" fill="none"/>
<line x1="73.0" y1="26.0" x2="68.0" y2="26.0" style="stroke:#000000;stroke-width:0.5;fill-rule: evenodd;" fill="none"/>
<line x1="68.0" y1="26.0" x2="68.0" y2="28.0" style="stroke:#000000;stroke-width:0.5;fill-rule: evenodd;" fill="none"/>
<line x1="73.0" y1="20.0" x2="68.0" y2="20.0" style="stroke:#000000;stroke-width:0.5;fill-rule: evenodd;" fill="none"/>
<polygon points="73.0,20.0 71.0,21.0 71.0,19.0" style="stroke:#000000;stroke-width:0.5;fill-rule: evenodd;" fill="#000000"/>
<line x1="68.0" y1="20.0" x2="68.0" y2="18.0" style="stroke:#000000;stroke-width:0.5;fill-rule: evenodd;" fill="none"/>
<line x1="78.0" y1="23.0" x2="74.0" y2="23.0" style="stroke:#000000;stroke-width:0.5;fill-rule: evenodd;" fill="none"/>
<line x1="74.0" y1="26.0" x2="74.0" y2="20.0" style="stroke:#000000;stroke-width:0.5;fill-rule: evenodd;" fill="none"/>
<line x1="143.0" y1="27.0" x2="143.0" y2="19.0" style="stroke:#000000;stroke-width:0.5;fill-rule: evenodd;" fill="none"/>
<line x1="143.0" y1="26.0" x2="138.0" y2="26.0" style="stroke:#000000;stroke-width:0.5;fill-rule: evenodd;" fill="none"/>
<line x1="138.0" y1="26.0" x2="138.0" y2="28.0" style="stroke:#000000;stroke-width:0.5;fill-rule: evenodd;" fill="none"/>
<line x1="143.0" y1="20.0" x2="138.0" y2="20.0" style="stroke:#000000;stroke-width:0.5;fill-rule: evenodd;" fill="none"/>
<polygon points="143.0,20.0 141.0,21.0 141.0,19.0" style="stroke:#000000;stroke-width:0.5;fill-rule: evenodd;" fill="#000000"/>
<line x1="138.0" y1="20.0" x2="138.0" y2="18.0" style="stroke:#000000;stroke-width:0.5;fill-rule: evenodd;" fill="none"/>
<line x1="148.0" y1="23.0" x2="144.0" y2="23.0" style="stroke:#000000;stroke-width:0.5;fill-rule: evenodd;" fill="none"/>
<line x1="144.0" y1="26.0" x2="144.0" y2="20.0" style="stroke:#000000;stroke-width:0.5;fill-rule: evenodd;" fill="none"/>
<line x1="173.0" y1="27.0" x2="173.0" y2="19.0" style="stroke:#000000;stroke-width:0.5;fill-rule: evenodd;" fill="none"/>
<line x1="173.0" y1="26.0" x2="168.0" y2="26.0" style="stroke:#000000;stroke-width:0.5;fill-rule: evenodd;" fill="none"/>
<line x1="168.0" y1="26.0" x2="168.0" y2="28.0" style="stroke:#000000;stroke-width:0.5;fill-rule: evenodd;" fill="none"/>
<line x1="173.0" y1="20.0" x2="168.0" y2="20.0" style="stroke:#000000;stroke-width:0.5;fill-rule: evenodd;" fill="none"/>
<polygon points="173.0,20.0 171.0,21.0 171.0,19.0" style="stroke:#000000;stroke-width:0.5;fill-rule: evenodd;" fill="#000000"/>
<line x1="168.0" y1="20.0" x2="168.0" y2="18.0" style="stroke:#000000;stroke-width:0.5;fill-rule: evenodd;" fill="none"/>
<line x1="178.0" y1="23.0" x2="174.0" y2="23.0" style="stroke:#000000;stroke-width:0.5;fill-rule: evenodd;" fill="none"/>
<line x1="174.0" y1="26.0" x2="174.0" y2="20.0" style="stroke:#000000;stroke-width:0.5;fill-rule: evenodd;" fill="none"/>
<line x1="53.0" y1="27.0" x2="53.0" y2="19.0" style="stroke:#000000;stroke-width:0.5;fill-rule: evenodd;" fill="none"/>
<line x1="53.0" y1="26.0" x2="58.0" y2="26.0" style="stroke:#000000;stroke-width:0.5;fill-rule: evenodd;" fill="none"/>
<line x1="58.0" y1="26.0" x2="58.0" y2="28.0" style="stroke:#000000;stroke-width:0.5;fill-rule: evenodd;" fill="none"/>
<line x1="53.0" y1="20.0" x2="58.0" y2="20.0" style="stroke:#000000;stroke-width:0.5;fill-rule: evenodd;" fill="none"/>
<polygon points="53.0,20.0 55.0,19.0 55.0,21.0" style="stroke:#000000;stroke-width:0.5;fill-rule: evenodd;" fill="#000000"/>
<line x1="58.0" y1="20.0" x2="58.0" y2="18.0" style="stroke:#000000;stroke-width:0.5;fill-rule: evenodd;" fill="none"/>
<line x1="48.0" y1="23.0" x2="52.0" y2="23.0" style="stroke:#000000;stroke-width:0.5;fill-rule: evenodd;" fill="none"/>
<line x1="52.0" y1="26.0" x2="52.0" y2="20.0" style="stroke:#000000;stroke-width:0.5;fill-rule: evenodd;" fill="none"/>
<line x1="23.0" y1="27.0" x2="23.0" y2="19.0" style="stroke:#000000;stroke-width:0.5;fill-rule: evenodd;" fill="none"/>
<line x1="23.0" y1="26.0" x2="28.0" y2="26.0" style="stroke:#000000;stroke-width:0.5;fill-rule: evenodd;" fill="none"/>
<line x1="28.0" y1="26.0" x2="28.0" y2="28.0" style="stroke:#000000;stroke-width:0.5;fill-rule: evenodd;" fill="none"/>
<line x1="23.0" y1="20.0" x2="28.0" y2="20.0" style="stroke:#000000;stroke-width:0.5;fill-rule: evenodd;" fill="none"/>
<polygon points="23.0,20.0 25.0,19.0 25.0,21.0" style="stroke:#000000;stroke-width:0.5;fill-rule: evenodd;" fill="#000000"/>
<line x1="28.0" y1="20.0" x2="28.0" y2="18.0" style="stroke:#000000;stroke-width:0.5;fill-rule: evenodd;" fill="none"/>
<line x1="18.0" y1="23.0" x2="22.0" y2="23.0" style="stroke:#000000;stroke-width:0.5;fill-rule: evenodd;" fill="none"/>
<line x1="22.0" y1="26.0" x2="22.0" y2="20.0" style="stroke:#000000;stroke-width:0.5;fill-rule: evenodd;" fill="none"/>
<line x1="68.0" y1="83.0" x2="68.0" y2="93.0" style="stroke:#000000;stroke-width:0.5;fill-rule: evenodd;" fill="none"/>
<line x1="68.0" y1="93.0" x2="128.0" y2="93.0" style="stroke:#000000;stroke-width:0.5;fill-rule: evenodd;" fill="none"/>
<line x1="128.0" y1="93.0" x2="128.0" y2="83.0" style="stroke:#000000;stroke-width:0.5;fill-rule: evenodd;" fill="none"/>
<line x1="98.0" y1="103.0" x2="98.0" y2="93.0" style="stroke:#000000;stroke-width:0.5;fill-rule: evenodd;" fill="none"/>
<line x1="98.0" y1="113.0" x2="98.0" y2="118.0" style="stroke:#000000;stroke-width:0.5;fill-rule: evenodd;" fill="none"/>
<line x1="68.0" y1="73.0" x2="68.0" y2="53.0" style="stroke:#000000;stroke-width:0.5;fill-rule: evenodd;" fill="none"/>
<line x1="68.0" y1="28.0" x2="68.0" y2="43.0" style="stroke:#000000;stroke-width:0.5;fill-rule: evenodd;" fill="none"/>
<line x1="128.0" y1="43.0" x2="128.0" y2="28.0" style="stroke:#000000;stroke-width:0.5;fill-rule: evenodd;" fill="none"/>
<line x1="68.0" y1="18.0" x2="68.0" y2="8.0" style="stroke:#000000;stroke-width:0.5;fill-rule: evenodd;" fill="none"/>
<line x1="68.0" y1="8.0" x2="128.0" y2="8.0" style="stroke:#000000;stroke-width:0.5;fill-rule: evenodd;" fill="none"/>
<line x1="128.0" y1="8.0" x2="128.0" y2="18.0" style="stroke:#000000;stroke-width:0.5;fill-rule: evenodd;" fill="none"/>
<line x1="168.0" y1="18.0" x2="168.0" y2="8.0" style="stroke:#000000;stroke-width:0.5;fill-rule: evenodd;" fill="none"/>
<line x1="168.0" y1="8.0" x2="128.0" y2="8.0" style="stroke:#000000;stroke-width:0.5;fill-rule: evenodd;" fill="none"/>
<line x1="68.0" y1="8.0" x2="28.0" y2="8.0" style="stroke:#000000;stroke-width:0.5;fill-rule: evenodd;" fill="none"/>
<line x1="28.0" y1="8.0" x2="28.0" y2="18.0" style="stroke:#000000;stroke-width:0.5;fill-rule: evenodd;" fill="none"/>
<line x1="58.0" y1="18.0" x2="58.0" y2="8.0" style="stroke:#000000;stroke-width:0.5;fill-rule: evenodd;" fill="none"/>
<line x1="138.0" y1="18.0" x2="138.0" y2="8.0" style="stroke:#000000;stroke-width:0.5;fill-rule: evenodd;" fill="none"/>
<line x1="58.0" y1="28.0" x2="58.0" y2="33.0" style="stroke:#000000;stroke-width:0.5;fill-rule: evenodd;" fill="none"/>
<line x1="58.0" y1="33.0" x2="68.0" y2="33.0" style="stroke:#000000;stroke-width:0.5;fill-rule: evenodd;" fill="none"/>
<line x1="138.0" y1="28.0" x2="138.0" y2="33.0" style="stroke:#000000;stroke-width:0.5;fill-rule: evenodd;" fill="none"/>
<line x1="138.0" y1="33.0" x2="128.0" y2="33.0" style="stroke:#000000;stroke-width:0.5;fill-rule: evenodd;" fill="none"/>
<line x1="78.0" y1="48.0" x2="83.0" y2="48.0" style="stroke:#000000;stroke-width:0.5;fill-rule: evenodd;" fill="none"/>
<line x1="83.0" y1="48.0" x2="83.0" y2="23.0" style="stroke:#000000;stroke-width:0.5;fill-rule: evenodd;" fill="none"/>
<line x1="83.0" y1="23.0" x2="78.0" y2="23.0" style="stroke:#000000;stroke-width:0.5;fill-rule: evenodd;" fill="none"/>
<line x1="118.0" y1="23.0" x2="113.0" y2="23.0" style="stroke:#000000;stroke-width:0.5;fill-rule: evenodd;" fill="none"/>
<line x1="113.0" y1="23.0" x2="113.0" y2="48.0" style="stroke:#000000;stroke-width:0.5;fill-rule: evenodd;" fill="none"/>
<line x1="113.0" y1="48.0" x2="118.0" y2="48.0" style="stroke:#000000;stroke-width:0.5;fill-rule: evenodd;" fill="none"/>
<line x1="128.0" y1="73.0" x2="128.0" y2="53.0" style="stroke:#000000;stroke-width:0.5;fill-rule: evenodd;" fill="none"/>
<line x1="28.0" y1="28.0" x2="28.0" y2="63.0" style="stroke:#000000;stroke-width:0.5;fill-rule: evenodd;" fill="none"/>
<line x1="28.0" y1="63.0" x2="68.0" y2="63.0" style="stroke:#000000;stroke-width:0.5;fill-rule: evenodd;" fill="none"/>
<line x1="128.0" y1="63.0" x2="168.0" y2="63.0" style="stroke:#000000;stroke-width:0.5;fill-rule: evenodd;" fill="none"/>
<line x1="168.0" y1="63.0" x2="168.0" y2="28.0" style="stroke:#000000;stroke-width:0.5;fill-rule: evenodd;" fill="none"/>
<line x1="68.0" y1="38.0" x2="113.0" y2="38.0" style="stroke:#000000;stroke-width:0.5;fill-rule: evenodd;" fill="none"/>
<line x1="83.0" y1="33.0" x2="128.0" y2="33.0" style="stroke:#000000;stroke-width:0.5;fill-rule: evenodd;" fill="none"/>
<circle cx="83.0" cy="33.0" r="1.0" style="stroke:#000000;stroke-width:0.33" fill="#000000"/>
<circle cx="113.0" cy="38.0" r="1.0" style="stroke:#000000;stroke-width:0.33" fill="#000000"/>
<circle cx="128.0" cy="33.0" r="1.0" style="stroke:#000000;stroke-width:0.33" fill="#000000"/>
<circle cx="68.0" cy="38.0" r="1.0" style="stroke:#000000;stroke-width:0.33" fill="#000000"/>
<circle cx="68.0" cy="63.0" r="1.0" style="stroke:#000000;stroke-width:0.33" fill="#000000"/>
<circle cx="68.0" cy="33.0" r="1.0" style="stroke:#000000;stroke-width:0.33" fill="#000000"/>
<circle cx="128.0" cy="63.0" r="1.0" style="stroke:#000000;stroke-width:0.33" fill="#000000"/>
<circle cx="98.0" cy="93.0" r="1.0" style="stroke:#000000;stroke-width:0.33" fill="#000000"/>
<polygon points="95.0,120.0 101.0,120.0 98.0,123.0 98.0,123.0 " style="stroke:#000000;stroke-width:0.5;fill-rule: evenodd;" fill="none"/>
<line x1="98.0" y1="118.0" x2="98.0" y2="120.0" style="stroke:#000000;stroke-width:0.5;fill-rule: evenodd;" fill="none"/>
<line x1="98.0" y1="8.0" x2="98.0" y2="3.0" style="stroke:#000000;stroke-width:0.5;fill-rule: evenodd;" fill="none"/>
<line x1="95.0" y1="3.0" x2="101.0" y2="3.0" style="stroke:#000000;stroke-width:0.5;fill-rule: evenodd;" fill="none"/>
<circle cx="98.0" cy="8.0" r="1.0" style="stroke:#000000;stroke-width:0.33" fill="#000000"/>
<circle cx="58.0" cy="8.0" r="1.0" style="stroke:#000000;stroke-width:0.33" fill="#000000"/>
<circle cx="68.0" cy="8.0" r="1.0" style="stroke:#000000;stroke-width:0.33" fill="#000000"/>
<circle cx="128.0" cy="8.0" r="1.0" style="stroke:#000000;stroke-width:0.33" fill="#000000"/>
<circle cx="138.0" cy="8.0" r="1.0" style="stroke:#000000;stroke-width:0.33" fill="#000000"/>
<line x1="48.0" y1="23.0" x2="8.0" y2="23.0" style="stroke:#000000;stroke-width:0.5;fill-rule: evenodd;" fill="none"/>
<line x1="148.0" y1="23.0" x2="188.0" y2="23.0" style="stroke:#000000;stroke-width:0.5;fill-rule: evenodd;" fill="none"/>
<line x1="88.0" y1="108.0" x2="83.0" y2="108.0" style="stroke:#000000;stroke-width:0.5;fill-rule: evenodd;" fill="none"/>
<line x1="58.0" y1="78.0" x2="53.0" y2="78.0" style="stroke:#000000;stroke-width:0.5;fill-rule: evenodd;" fill="none"/>
<line x1="138.0" y1="78.0" x2="143.0" y2="78.0" style="stroke:#000000;stroke-width:0.5;fill-rule: evenodd;" fill="none"/>
<g transform="translate(103.0,103.0) scale(1.2954545454545454,1) "><text x="0" y="4.0" font-family="Arial" font-size="4.0" font-style="" font-weigth="" fill="#000000">MNT</text>
</g>
<g transform="translate(43.0,13.0) scale(1.2954545454545454,1) "><text x="0" y="4.0" font-family="Arial" font-size="4.0" font-style="" font-weigth="" fill="#000000">MP1</text>
</g>
<g transform="translate(13.0,13.0) scale(1.727272727272727,1) "><text x="0" y="3.0" font-family="Arial" font-size="3.0" font-style="" font-weigth="" fill="#000000">MP2</text>
</g>
<g transform="translate(143.0,13.0) scale(1.2954545454545454,1) "><text x="0" y="4.0" font-family="Arial" font-size="4.0" font-style="" font-weigth="" fill="#000000">MP3</text>
</g>
<g transform="translate(173.0,13.0) scale(1.2954545454545454,1) "><text x="0" y="4.0" font-family="Arial" font-size="4.0" font-style="" font-weigth="" fill="#000000">MP4</text>
</g>
<g transform="translate(73.0,13.0) scale(1.2954545454545454,1) "><text x="0" y="4.0" font-family="Arial" font-size="4.0" font-style="" font-weigth="" fill="#000000">MP5</text>
</g>
<g transform="translate(113.0,13.0) scale(1.2954545454545454,1) "><text x="0" y="4.0" font-family="Arial" font-size="4.0" font-style="" font-weigth="" fill="#000000">MP6</text>
</g>
<g transform="translate(73.0,53.0) scale(1.2954545454545454,1) "><text x="0" y="4.0" font-family="Arial" font-size="4.0" font-style="" font-weigth="" fill="#000000">MN3</text>
</g>
<g transform="translate(113.0,53.0) scale(1.2954545454545454,1) "><text x="0" y="4.0" font-family="Arial" font-size="4.0" font-style="" font-weigth="" fill="#000000">MN4</text>
</g>
<g transform="translate(73.0,78.0) scale(1.2954545454545454,1) "><text x="0" y="4.0" font-family="Arial" font-size="4.0" font-style="" font-weigth="" fill="#000000">MN1</text>
</g>
<g transform="translate(113.0,78.0) scale(1.2954545454545454,1) "><text x="0" y="4.0" font-family="Arial" font-size="4.0" font-style="" font-weigth="" fill="#000000">MN2</text>
</g>
<g transform="translate(53.0,38.0) scale(1.2954545454545454,1) "><text x="0" y="4.0" font-family="Arial" font-size="4.0" font-style="" font-weigth="" fill="#000000">out_p</text>
</g>
<g transform="translate(133.0,38.0) scale(1.2954545454545454,1) "><text x="0" y="4.0" font-family="Arial" font-size="4.0" font-style="" font-weigth="" fill="#000000">out_n</text>
</g>
<g transform="translate(73.0,63.0) scale(1.2954545454545454,1) "><text x="0" y="4.0" font-family="Arial" font-size="4.0" font-style="" font-weigth="" fill="#000000">sp</text>
</g>
<g transform="translate(118.0,63.0) scale(1.2954545454545454,1) "><text x="0" y="4.0" font-family="Arial" font-size="4.0" font-style="" font-weigth="" fill="#000000">sn</text>
</g>
<g transform="translate(3.0,23.0) scale(1.2954545454545454,1) "><text x="0" y="4.0" font-family="Arial" font-size="4.0" font-style="" font-weigth="" fill="#000000">CLK</text>
</g>
<g transform="translate(183.0,23.0) scale(1.2954545454545454,1) "><text x="0" y="4.0" font-family="Arial" font-size="4.0" font-style="" font-weigth="" fill="#000000">CLK</text>
</g>
<g transform="translate(78.0,108.0) scale(1.2954545454545454,1) "><text x="0" y="4.0" font-family="Arial" font-size="4.0" font-style="" font-weigth="" fill="#000000">CLK</text>
</g>
<g transform="translate(44.0,71.0) scale(1.2954545454545454,1) "><text x="0" y="4.0" font-family="Arial" font-size="4.0" font-style="" font-weigth="" fill="#000000">vin_p</text>
</g>
<g transform="translate(139.0,71.0) scale(1.2954545454545454,1) "><text x="0" y="4.0" font-family="Arial" font-size="4.0" font-style="" font-weigth="" fill="#000000">vin_n</text>
</g>
</svg>